<svg width="201" height="41" viewBox="0 0 201 41" fill="none" xmlns="http://www.w3.org/2000/svg">
<path d="M20 0.296875C8.97187 0.296875 0 9.26929 0 20.2972C0 31.3252 8.97187 40.2969 20 40.2969C31.0281 40.2969 40 31.3252 40 20.2972C40 9.26929 31.0281 0.296875 20 0.296875ZM20 38.5098C9.95723 38.5098 1.78714 30.3398 1.78714 20.2972C1.78714 10.2546 9.95723 2.08399 20 2.08399C30.0428 2.08399 38.2129 10.2546 38.2129 20.2972C38.2129 30.3398 30.0428 38.5098 20 38.5098Z" fill="white"/>
<path d="M28.9879 19.8657C28.1128 18.8956 27.2566 17.9064 26.4005 16.9173C26.001 16.4512 25.592 15.9852 25.1924 15.5191L24.6122 14.8343C24.5551 14.7678 24.4695 14.7202 24.3744 14.7107C23.8512 14.6631 23.328 14.6727 22.8143 14.6727C22.5575 14.6727 22.3006 14.6727 22.0438 14.6727C21.7204 14.6631 21.6062 14.8058 21.5491 14.9295C21.473 15.1007 21.5206 15.2909 21.6918 15.4906L23.2329 17.2407C24.1175 18.2488 25.0117 19.2665 25.9344 20.3127C25.7537 20.503 25.5824 20.7027 25.4112 20.9024L24.9451 21.4351C23.8797 22.643 22.8238 23.8414 21.7299 25.0778C21.4445 25.3441 21.4826 25.5819 21.5682 25.7341C21.6823 25.9338 21.8726 25.9719 22.0153 25.9719C22.0723 25.9719 22.1199 25.9719 22.1579 25.9623H22.7953C23.1472 25.9623 23.4992 25.9623 23.8512 25.9623C24.2126 25.9623 24.498 25.8482 24.7453 25.5629C26.1437 23.965 27.5515 22.3671 28.9689 20.7788C29.2543 20.4649 29.2543 20.1511 28.9689 19.8467L28.9879 19.8657Z" fill="white"/>
<path d="M23.5631 19.864C22.688 18.8939 21.8319 17.9047 20.9757 16.9156C20.5572 16.44 20.1482 15.955 19.7296 15.4699L19.1874 14.8326C19.1874 14.8326 19.1779 14.8326 19.1684 14.8231C19.1684 14.8231 19.1589 14.8231 19.1493 14.8136C19.0923 14.7661 19.0257 14.728 18.9496 14.7185C18.9401 14.7185 18.9306 14.7185 18.921 14.7185C18.4074 14.671 17.8937 14.6805 17.399 14.6805C17.1422 14.6805 16.8854 14.6805 16.6285 14.6805C16.581 14.6805 16.5239 14.6805 16.4763 14.69C16.3907 14.69 16.3146 14.728 16.248 14.7946L10.9781 20.0638C10.8354 20.2064 10.8354 20.4252 10.9781 20.5678L16.2575 25.8465C16.3146 25.9036 16.3812 25.9321 16.4573 25.9416C16.5619 25.9702 16.6666 25.9606 16.7617 25.9606H17.399C17.751 25.9606 18.103 25.9606 18.4549 25.9606H18.493C18.8449 25.9606 19.1113 25.837 19.3491 25.5612C20.7474 23.9633 22.1553 22.3654 23.5727 20.7771C23.858 20.4632 23.858 20.1494 23.5727 19.845L23.5631 19.864ZM20.5191 20.3206C20.3384 20.5108 20.1672 20.7105 19.9864 20.9102L16.5144 24.8478L11.9864 20.3206L16.5239 15.7838L17.7415 17.1629C18.6547 18.1996 19.5679 19.2458 20.5191 20.3206Z" fill="white"/>
<g opacity="0.95">
<g clip-path="url(#clip0_2_3140)">
<path d="M79.0134 15.4816C79.0134 9.87685 75.5105 6.96387 68.4677 6.96387H57.332V32.7751H63.6373V23.9255H68.4677C75.5105 23.9255 79.0134 21.0863 79.0134 15.4816ZM72.6344 15.4816C72.6344 18.0996 70.6801 18.7633 68.099 18.7633H63.6373V12.163H68.099C70.6801 12.163 72.6344 12.8636 72.6344 15.4816Z" fill="white"/>
<path d="M86.846 13.4169H80.7988V32.7753H86.846V25.1057C86.846 25.1057 87.5466 18.8741 94.0732 18.8741V13.1956C89.169 12.8638 87.2885 16.3298 86.846 17.436V13.4169Z" fill="white"/>
<path d="M113.445 24.3682C113.445 24.3682 113.777 23.2251 113.777 21.6027C113.777 16.6617 110.68 13.0112 104.411 13.0112C98.2166 13.0112 94.5293 16.7723 94.5293 23.1513C94.5293 30.0835 98.7328 33.1808 103.969 33.1808C108.504 33.1808 112.413 31.0053 113.888 30.1941L111.675 26.4331C109.279 27.6867 106.624 28.7192 104.596 28.7192C102.273 28.7192 101.019 27.2443 100.724 24.3682H113.445ZM104.448 17.2885C106.697 17.2885 107.841 18.6528 107.877 21.1971H100.761C101.093 18.6897 102.273 17.2885 104.448 17.2885Z" fill="white"/>
<path d="M122.088 13.4168H116.041V40.2974H122.088V30.7841C123.711 32.1115 125.591 33.1808 128.43 33.1808C132.966 33.1808 136.026 29.7516 136.026 23.1145C136.026 16.4036 132.966 13.0112 128.43 13.0112C125.591 13.0112 123.711 14.1174 122.088 15.4449V13.4168ZM126.513 17.8785C128.762 17.8785 129.905 19.6853 129.905 23.0776C129.905 26.5068 128.762 28.3136 126.513 28.3136C125.038 28.3136 123.416 27.613 122.088 26.0643V20.1646C123.416 18.5791 125.038 17.8785 126.513 17.8785Z" fill="white"/>
<path d="M159.517 25.9167C159.517 21.0125 155.683 19.427 153.581 19.0951C155.314 18.8002 158.079 16.9934 158.079 13.2692C158.079 9.25 154.945 6.96387 149.414 6.96387H140.896V32.7751H151.221C156.641 32.7751 159.517 30.1571 159.517 25.9167ZM155.719 13.5273C155.719 16.7721 152.917 18.2102 149.34 18.2102H143.293V8.99189H149.562C153.876 8.99189 155.719 10.9093 155.719 13.5273ZM157.158 25.5848C157.158 28.5347 155.24 30.7471 151.11 30.7471H143.293V20.2013H149.562C154.466 20.2013 157.158 22.0081 157.158 25.5848Z" fill="#263238"/>
<path d="M180.44 23.1145C180.44 16.8829 177.342 13.0112 171.627 13.0112C165.875 13.0112 162.814 16.8829 162.814 23.1145C162.814 29.346 165.875 33.1808 171.627 33.1808C177.342 33.1808 180.44 29.346 180.44 23.1145ZM178.08 23.1145C178.08 28.0186 176.163 31.2266 171.627 31.2266C167.092 31.2266 165.211 28.0186 165.211 23.1145C165.211 18.2103 167.092 14.9655 171.627 14.9655C176.163 14.9655 178.08 18.2103 178.08 23.1145Z" fill="#263238"/>
<path d="M198.006 32.7749H200.919L192.659 23.0404L200.476 13.4165H197.637L191.369 21.6023L185.026 13.4165H182.224L190.041 23.0404L181.818 32.7749H184.731L191.332 24.4416L198.006 32.7749Z" fill="#263238"/>
</g>
</g>
<defs>
<clipPath id="clip0_2_3140">
<rect width="143.587" height="33.3333" fill="white" transform="translate(57.332 6.96387)"/>
</clipPath>
</defs>
</svg>
