<svg width="920" height="100" viewBox="0 0 920 100" fill="none" xmlns="http://www.w3.org/2000/svg">
<path d="M0 98.6111H45.5556V79.7223H19.4444V1.38892H0V98.6111ZM6.94444 91.8056V8.33336H12.5V86.5278H38.6111V91.8056H6.94444Z" fill="#263238"/>
<path d="M61.8613 98.6111H110.195V79.7223H81.3058V59.4445H107.417V40.5556H81.3058V20.2778H110.195V1.38892H61.8613V98.6111ZM68.8058 91.8056V8.19447H103.25V13.4722H74.3613V47.3611H100.472V52.6389H74.3613V86.5278H103.25V91.8056H68.8058Z" fill="#263238"/>
<path d="M120.945 98.6111H140.945L144.695 83.3334H166.64L170.251 98.6111H190.39L166.084 1.38892H145.251L120.945 98.6111ZM149.14 64.4445L155.668 37.3611L162.195 64.4445H149.14ZM129.834 91.6667L150.668 8.33336H160.668L181.501 91.6667H175.806L172.056 76.5278H139.279L135.529 91.6667H129.834ZM140.529 71.25H170.806L155.668 11.1111L140.529 71.25Z" fill="#263238"/>
<path d="M203.916 98.6111H223.36V73.75L247.527 98.6111H274.749L240.305 63.3334C258.638 60.6945 267.249 46.8056 267.249 32.5C267.249 14.3056 254.055 1.38892 235.444 1.38892H203.916V98.6111ZM223.36 44.7222V20.2778H235.444C242.666 20.2778 247.805 25.4167 247.805 32.5C247.805 39.5834 242.666 44.7222 235.444 44.7222H223.36ZM210.86 91.6667V8.19447H235.444C250.027 8.19447 260.305 18.3334 260.305 32.5C260.305 46.6667 250.027 56.8056 235.444 56.8056H224.194L258.222 91.6667H250.583L216.416 56.8056V91.6667H210.86ZM216.416 51.5278H235.444C246.694 51.5278 254.749 43.6111 254.749 32.5C254.749 21.3889 246.694 13.4722 235.444 13.4722H216.416V51.5278Z" fill="#263238"/>
<path d="M284.943 98.6111H304.388V47.3611L323.554 98.6111H345.777V1.38892H326.332V52.6389L307.166 1.38892H284.943V98.6111ZM291.888 91.6667V8.33336H302.304L333.277 88.8889V8.33336H338.832V91.6667H328.416L297.443 11.1111V91.6667H291.888Z" fill="#263238"/>
<path d="M400.611 98.6111H431.722C449.084 98.6111 461.445 86.5278 461.445 69.5834C461.445 61.8056 458.806 55.1389 454.084 50C458.806 45 461.445 38.1945 461.445 30.4167C461.445 13.4722 449.084 1.38892 431.722 1.38892H400.611V98.6111ZM420.056 79.7223V59.4445H431.722C437.695 59.4445 442 63.75 442 69.5834C442 75.4167 437.695 79.7223 431.722 79.7223H420.056ZM420.056 40.5556V20.2778H431.722C437.695 20.2778 442 24.5834 442 30.4167C442 36.25 437.695 40.5556 431.722 40.5556H420.056ZM407.556 91.8056V8.19447H431.722C445.056 8.19447 454.5 17.5 454.5 30.4167C454.5 39.3056 450.056 46.5278 442.834 50C450.056 53.6111 454.5 60.6945 454.5 69.5834C454.5 82.5 445.056 91.8056 431.722 91.8056H407.556ZM413.111 86.5278H431.722C441.722 86.5278 448.945 79.4445 448.945 69.5834C448.945 59.7223 441.722 52.6389 431.722 52.6389H413.111V86.5278ZM413.111 47.3611H431.722C441.722 47.3611 448.945 40.2778 448.945 30.4167C448.945 20.5556 441.722 13.4722 431.722 13.4722H413.111V47.3611Z" fill="#263238"/>
<path d="M490.668 98.6111H510.113V55.2778L532.752 1.38892H511.64L500.39 29.7222L489.14 1.38892H468.029L490.668 55.2778V98.6111ZM497.613 91.6667V54.0278L478.446 8.33336H484.418L500.39 46.25L516.363 8.33336H522.335L503.168 54.0278V91.6667H497.613Z" fill="#263238"/>
<path d="M579.943 98.6111H610.36C628.138 98.6111 640.777 86.25 640.777 68.8889V31.1111C640.777 13.75 628.138 1.38892 610.36 1.38892H579.943V98.6111ZM599.388 79.7223V20.2778H610.36C616.749 20.2778 621.332 24.7222 621.332 31.1111V68.8889C621.332 75.2778 616.749 79.7223 610.36 79.7223H599.388ZM586.888 91.8056V8.19447H610.36C624.11 8.19447 633.832 17.7778 633.832 31.1111V68.8889C633.832 82.2223 624.11 91.8056 610.36 91.8056H586.888ZM592.443 86.5278H610.36C620.777 86.5278 628.277 79.3056 628.277 68.8889V31.1111C628.277 20.6945 620.777 13.4722 610.36 13.4722H592.443V86.5278Z" fill="#263238"/>
<path d="M688.889 100C706.667 100 719.306 87.6389 719.306 70.2778V29.7222C719.306 12.3611 706.667 0 688.889 0C671.112 0 658.473 12.3611 658.473 29.7222V70.2778C658.473 87.6389 671.112 100 688.889 100ZM688.889 81.1111C682.5 81.1111 677.917 76.6667 677.917 70.2778V29.7222C677.917 23.3333 682.5 18.8889 688.889 18.8889C695.278 18.8889 699.862 23.3333 699.862 29.7222V70.2778C699.862 76.6667 695.278 81.1111 688.889 81.1111ZM688.889 93.1944C675.139 93.1944 665.417 83.6111 665.417 70.2778V29.7222C665.417 16.3889 675.139 6.80556 688.889 6.80556C702.639 6.80556 712.362 16.3889 712.362 29.7222V70.2778C712.362 83.6111 702.639 93.1944 688.889 93.1944ZM688.889 87.9167C699.306 87.9167 706.806 80.6944 706.806 70.2778V29.7222C706.806 19.3055 699.306 12.0833 688.889 12.0833C678.473 12.0833 670.973 19.3055 670.973 29.7222V70.2778C670.973 80.6944 678.473 87.9167 688.889 87.9167Z" fill="#263238"/>
<path d="M738.389 98.6111H757.833V1.38892H738.389V98.6111ZM745.333 91.6667V8.33336H750.889V91.6667H745.333Z" fill="#263238"/>
<path d="M778.307 98.6111H797.751V47.3611L816.918 98.6111H839.14V1.38892H819.696V52.6389L800.529 1.38892H778.307V98.6111ZM785.251 91.6667V8.33336H795.668L826.64 88.8889V8.33336H832.196V91.6667H821.779L790.807 11.1111V91.6667H785.251Z" fill="#263238"/>
<path d="M888.637 100C906.415 100 919.054 87.6389 919.054 70.2778V40.5555H889.332V59.4444H899.61V70.2778C899.61 76.6667 895.026 81.1111 888.637 81.1111C882.248 81.1111 877.665 76.6667 877.665 70.2778V29.7222C877.665 23.3333 882.248 18.8889 888.637 18.8889C895.026 18.8889 899.61 23.3333 899.61 29.7222V34.7222H919.054V29.7222C919.054 12.3611 906.415 0 888.637 0C870.86 0 858.221 12.3611 858.221 29.7222V70.2778C858.221 87.6389 870.86 100 888.637 100ZM888.637 93.1944C874.887 93.1944 865.165 83.6111 865.165 70.2778V29.7222C865.165 16.3889 874.887 6.80556 888.637 6.80556C901.693 6.80556 911.276 15.5556 911.971 27.7778H906.415C905.582 18.3333 898.36 12.0833 888.637 12.0833C878.221 12.0833 870.721 19.3055 870.721 29.7222V70.2778C870.721 80.6944 878.221 87.9167 888.637 87.9167C899.054 87.9167 906.554 80.6944 906.554 70.2778V52.6389H896.276V47.3611H912.11V70.2778C912.11 83.6111 902.387 93.1944 888.637 93.1944Z" fill="#263238"/>
</svg>
