<svg width="43" height="33" viewBox="0 0 43 33" fill="none" xmlns="http://www.w3.org/2000/svg">
<path fill-rule="evenodd" clip-rule="evenodd" d="M27.2733 12.7512V11.9578C27.2733 11.4875 27.2796 11.0203 27.3242 10.5537C27.4282 9.95064 27.591 9.36276 27.8087 8.79194C28.0651 8.23485 28.3732 7.70457 28.7332 7.20709C29.1277 6.72735 29.5674 6.28698 30.0465 5.89179C30.5477 5.52995 31.0823 5.2164 31.6443 4.95726C32.2219 4.73726 32.8186 4.57342 33.4266 4.46957C33.7416 4.43805 34.0585 4.42228 34.3755 4.42228C34.9416 4.42228 35.5386 4.17906 35.941 3.77663C36.3257 3.39189 36.6132 2.76396 36.5866 2.21117C36.5601 1.64069 36.3744 1.04809 35.941 0.645712C35.5076 0.247705 34.9769 -0.00436601 34.3755 5.72815e-05C32.129 0.00890225 29.8338 0.672244 27.9809 1.95472C27.092 2.56942 26.2607 3.27257 25.5752 4.1172C25.1772 4.61249 24.788 5.1166 24.4608 5.66503C24.1291 6.21781 23.877 6.80595 23.6338 7.3986C23.05 8.82699 22.8555 10.3748 22.8555 11.9093V15.4692V18.4542C22.8555 18.4588 22.8555 18.4634 22.8555 18.4679C22.8555 18.4791 22.8555 18.4903 22.8555 18.5015V24.1974V26.3953C22.8555 27.9165 23.3773 29.4113 24.5006 30.4771C24.8809 30.8398 25.3231 31.1803 25.8052 31.4058C26.1191 31.5517 26.4375 31.6976 26.7737 31.7949C27.1128 31.8937 27.4768 31.9341 27.8254 31.9727L27.8571 31.9762C28.0782 32.0028 28.2993 32.0028 28.5249 32.0028H30.8023H36.4363H36.7434C36.7579 32.0029 36.7724 32.0029 36.7869 32.0028H36.799C36.8235 32.0028 36.848 32.0023 36.8726 32.0014C39.224 31.9458 41.2864 30.3681 41.9731 28.1155C42.1932 27.3939 42.1916 26.6497 42.19 25.9072C42.1899 25.8444 42.1898 25.7815 42.1898 25.7186V19.7574C42.1898 19.5718 42.1903 19.3857 42.1908 19.1995C42.1917 18.8265 42.1927 18.4529 42.1898 18.0813C42.1853 17.1526 41.951 16.2726 41.5176 15.4545C41.2699 14.9901 40.9294 14.5479 40.5447 14.1853C40.1688 13.8315 39.7354 13.491 39.2666 13.2699C38.4573 12.8852 37.6569 12.6641 36.7504 12.6641H36.1445H33.4867H28.3436C27.9894 12.6641 27.627 12.6885 27.2733 12.7512ZM5.49248 12.6641C5.13829 12.6641 4.77597 12.6885 4.42229 12.7512V11.9578C4.42229 11.4875 4.42859 11.0203 4.47311 10.5537C4.57719 9.95065 4.73995 9.36276 4.95768 8.79194C5.21403 8.23485 5.5222 7.70457 5.88219 7.20708C6.27664 6.72735 6.71635 6.28698 7.19543 5.89179C7.69667 5.52995 8.2313 5.2164 8.79322 4.95726C9.37086 4.73725 9.96753 4.57342 10.5755 4.46957C10.8905 4.43805 11.2075 4.42228 11.5245 4.42228C12.0905 4.42228 12.6875 4.17906 13.0899 3.77663C13.4747 3.39189 13.7621 2.76396 13.7356 2.21117C13.7091 1.64069 13.5233 1.04809 13.0899 0.645712C12.6565 0.247705 12.1259 -0.00436601 11.5245 5.72815e-05C9.27797 0.00890225 6.98279 0.672244 5.12986 1.95472C4.241 2.56942 3.40963 3.27257 2.72414 4.1172C2.32613 4.61249 1.93697 5.1166 1.60975 5.66503C1.27807 6.21781 1.026 6.80595 0.782745 7.3986C0.190161 8.82699 0 10.3748 0 11.9093V15.4692V18.4542L4.82124e-05 18.4679L0 18.5015V24.1974V26.3953C0 27.9165 0.521827 29.4113 1.64511 30.4771C2.02542 30.8398 2.46766 31.1803 2.9497 31.4058C3.26368 31.5517 3.58208 31.6976 3.91821 31.7949C4.25729 31.8937 4.62138 31.9341 4.96998 31.9727L5.00164 31.9762C5.22275 32.0028 5.44387 32.0028 5.6694 32.0028H7.94687H13.5809H13.8923C13.9068 32.0029 13.9213 32.0029 13.9358 32.0028H13.9435C13.9655 32.0028 13.9875 32.0024 14.0095 32.0017C16.3659 31.9512 18.4341 30.3719 19.122 28.1155C19.3421 27.3939 19.3405 26.6497 19.3389 25.9073V25.9073L19.3387 25.7186V19.7574C19.3387 19.5723 19.3392 19.3867 19.3396 19.201V19.2005V19.2V19.1995C19.3406 18.8265 19.3416 18.4529 19.3387 18.0813C19.3342 17.1526 19.0999 16.2726 18.6665 15.4545C18.4188 14.9901 18.0783 14.5479 17.6936 14.1853C17.3177 13.8315 16.8843 13.491 16.4155 13.2699C15.6062 12.8852 14.8058 12.6641 13.8993 12.6641H13.2934H10.6356H5.49248Z" fill="#4098F9"/>
</svg>
