<svg width="56" height="57" viewBox="0 0 56 57" fill="none" xmlns="http://www.w3.org/2000/svg">
<path d="M28 0.898438C12.5606 0.898438 0 13.4598 0 28.8989C0 44.338 12.5606 56.8984 28 56.8984C43.4394 56.8984 56 44.338 56 28.8989C56 13.4598 43.4394 0.898438 28 0.898438ZM28 54.3965C13.9401 54.3965 2.502 42.9586 2.502 28.8989C2.502 14.8393 13.9401 3.40039 28 3.40039C42.0599 3.40039 53.498 14.8393 53.498 28.8989C53.498 42.9586 42.0599 54.3965 28 54.3965V54.3965Z" fill="white"/>
<path d="M40.5803 28.2948C39.3551 26.9366 38.1566 25.5518 36.958 24.167C36.3986 23.5145 35.826 22.8621 35.2667 22.2096L34.4543 21.2509C34.3744 21.1577 34.2545 21.0911 34.1214 21.0778C33.3889 21.0112 32.6564 21.0245 31.9373 21.0245C31.5777 21.0245 31.2181 21.0245 30.8586 21.0245C30.4058 21.0112 30.246 21.2109 30.1661 21.384C30.0595 21.6237 30.1261 21.89 30.3658 22.1697L32.5233 24.6197C33.7618 26.0312 35.0136 27.4559 36.3054 28.9207C36.0524 29.187 35.8127 29.4666 35.573 29.7462L34.9204 30.4919C33.4288 32.183 31.9506 33.8607 30.4191 35.5917C30.0196 35.9646 30.0728 36.2975 30.1927 36.5105C30.3525 36.7901 30.6189 36.8434 30.8186 36.8434C30.8985 36.8434 30.9651 36.8434 31.0184 36.8301H31.9107C32.4034 36.8301 32.8961 36.8301 33.3889 36.8301C33.895 36.8301 34.2945 36.6703 34.6407 36.2708C36.5984 34.0338 38.5694 31.7968 40.5537 29.5731C40.9532 29.1337 40.9532 28.6943 40.5537 28.2682L40.5803 28.2948Z" fill="white"/>
<path d="M32.9896 28.2922C31.7644 26.9341 30.5658 25.5492 29.3672 24.1644C28.7812 23.4986 28.2086 22.8196 27.6226 22.1405L26.8635 21.2483C26.8635 21.2483 26.8502 21.2483 26.8369 21.235C26.8369 21.235 26.8236 21.235 26.8103 21.2217C26.7303 21.1551 26.6371 21.1018 26.5306 21.0885C26.5173 21.0885 26.504 21.0885 26.4906 21.0885C25.7715 21.022 25.0523 21.0353 24.3598 21.0353C24.0003 21.0353 23.6407 21.0353 23.2811 21.0353C23.2145 21.0353 23.1346 21.0353 23.068 21.0486C22.9482 21.0486 22.8416 21.1018 22.7484 21.1951L15.3705 28.5719C15.1708 28.7716 15.1708 29.0779 15.3705 29.2776L22.7617 36.6677C22.8416 36.7476 22.9349 36.7876 23.0414 36.8009C23.1879 36.8408 23.3344 36.8275 23.4676 36.8275H24.3598C24.8526 36.8275 25.3453 36.8275 25.8381 36.8275H25.8913C26.3841 36.8275 26.757 36.6544 27.0899 36.2683C29.0476 34.0313 31.0186 31.7942 33.0029 29.5705C33.4024 29.1311 33.4024 28.6917 33.0029 28.2656L32.9896 28.2922ZM28.728 28.9314C28.4749 29.1977 28.2352 29.4773 27.9822 29.757L23.1213 35.2696L16.7822 28.9314L23.1346 22.5799L24.8393 24.5106C26.1177 25.962 27.3962 27.4267 28.728 28.9314Z" fill="white"/>
</svg>
